La Vie revée des anges*1998*[DVD5][PAL][FRA, POL]

General information:
Country: France 
Release: May 1998 (Cannes Film Festival)
Genre: Drama 
Director: Eric Zonca
Screenplay: Eric Zonca, Roger Bohbot
Original Music: Yann Tiersen
Cinematography by: Agnes Godard
Duration: 1h 48mn
Language: French, Polish
Subtitles: Polish
Rating: 7.2/10 - 1493 votes 

Cast:
Élodie Bouchez  ...  Isabelle 'Isa' Tostin  
Natacha Régnier  ...  Marie Thomas  
Grégoire Colin  ...  Chriss  
Patrick Mercado  ...  Charly  
Jo Prestia  ...  Fredo  
Francine Massenhave  ...  La gardienne  
Zivko Niklevski  ...  Le patron Yougoslave  
Murielle Colvez  ...  Le chef d'atelier  
Lyazid Ouelhadj  ...  Le vendeur de billets  
Frédérique Hazard  ...  La mere de Marie  
Jean-Michel Lemayeux  ...  L'interne  
Louise Motte  ...  Sandrine Val  
Rosa Maria  ...  La premiere infirmiere  
Corinne Masiero  ...  La femme du Hollywood  
Xavier Denamur  ...  L'homme des patins  

Plot:
In Lille, two penniless young women with few prospects become friends. Isa moves in with Marie, who's flat-sitting for a mother and child in hospital in comas following a car crash.

Specifications:
General
Format                           : MPEG-PS
Overall bit rate                 : 5 628 Kbps

Video
Format                           : MPEG Video
Format version                   : Version 2
Format profile                   : Main@Main
Format settings, BVOP            : Yes
Format settings, Matrix          : Default
Format settings, GOP             : M=3, N=12
Bit rate mode                    : Variable
Bit rate                         : 5 100 Kbps
Nominal bit rate                 : 9 800 Kbps
Width                            : 720 pixels
Height                           : 576 pixels
Display aspect ratio             : 16:9
Frame rate                       : 25.000 fps
Standard                         : PAL

Audio 1
Format                           : AC-3
Format/Info                      : Audio Coding 3
Format profile                   : Dolby Digital
Mode extension                   : CM (complete main)
Bit rate mode                    : Constant
Bit rate                         : 192 Kbps
Channel(s)                       : 2 channels
Channel positions                : Front: L R
Sampling rate                    : 48.0 KHz
Video delay                      : -496ms
Stream size                      : 34.9 MiB (3%)

Audio 2
Format                           : AC-3
Format/Info                      : Audio Coding 3
Mode extension                   : CM (complete main)
Bit rate mode                    : Constant
Bit rate                         : 224 Kbps
Channel(s)                       : 2 channels
Channel positions                : Front: L R
Sampling rate                    : 48.0 KHz
Video delay                      : -560ms
Stream size                      : 40.8 MiB (4%)

Text
Format                           : RLE
Format/Info                      : Run-length encoding
